<svg xmlns="http://www.w3.org/2000/svg" height="24px" width="24px" xmlns:xlink="http://www.w3.org/1999/xlink" viewBox="0 0 18 18">
<g fill-rule="evenodd" fill="none">
<g fill="#398FD1" transform="translate(-15 -164)">
<g transform="translate(0 57)">
<g transform="translate(15 106.55)">
<g transform="translate(0 .15060)">
<path d="m9 1.0007l-9 9.4443 1.1188 1.148 7.8812-8.2442 3.978 4.1482v0.1827h0.174l3.729 3.9133 1.119-1.148-2.635-2.7653v-5.0092h-2.387v2.5046l-3.978-4.1744zm0 3.7569l-7.1602 7.5134v3.914 1.513h0.7956 4.7734v-5.009h3.1822v5.009h4.774 0.795v-1.513-3.914l-7.16-7.5134zm-0.1243 2.0872c0.0083-0.0001 0.0165-0.0001 0.0248 0 0.439-0.0288 0.8697 0.1343 1.1895 0.4506 0.321 0.3163 0.502 0.7576 0.501 1.2191 0 0.922-0.7124 1.6695-1.591 1.6695-0.8787 0-1.591-0.7475-1.5912-1.6695-0.0025-0.8735 0.637-1.6015 1.4668-1.6697h0.0001z"/>
</g>
</g>
</g>
</g>
</g>
</svg>