<svg xmlns="http://www.w3.org/2000/svg" height="60px" width="34px" xmlns:xlink="http://www.w3.org/1999/xlink" viewBox="0 0 34 60">
<g fill-rule="evenodd" fill="none">
<g transform="translate(-193 -2185)">
<g transform="translate(77 1959)">
<g transform="translate(0 226)">
<g transform="translate(103)">
<rect rx="40" height="11.25" width="3.75" y="37.5" x="28.125" fill="#434343"/>
<path fill="#398FD1" d="m13.125 29.991v26.268c0 2.066 1.674 3.741 3.741 3.741h26.268c2.066 0 3.741-1.674 3.741-3.741v-26.268c0-2.066-1.674-3.741-3.741-3.741h-26.268c-2.066 0-3.741 1.674-3.741 3.741zm30.009 0.009c-0.004 0-0.009 26.259-0.009 26.259 0-0.004-26.259-0.009-26.259-0.009 0.004 0 0.009-26.259 0.009-26.259 0 0.004 26.259 0.009 26.259 0.009zm-22.509-20.644v16.913l9.375 3.731 9.375-3.731v-16.913c0-5.167-4.208-9.356-9.375-9.356-5.178 0-9.375 4.2062-9.375 9.3564zm15 0v16.913h-11.25v-16.913c0-3.0841 2.524-5.606 5.625-5.606 3.102 0 5.625 2.516 5.625 5.6064z"/>
</g>
</g>
</g>
</g>
</g>
</svg>
