<svg xmlns="http://www.w3.org/2000/svg" height="60px" width="60px" xmlns:xlink="http://www.w3.org/1999/xlink" viewBox="0 0 60 60">
<g fill-rule="evenodd" fill="none">
<g transform="translate(-610 -2185)">
<g transform="translate(77 1959)">
<g transform="translate(397 226)">
<g transform="translate(136)">
<path fill="#434343" d="m24.369 30c-1.032 0-1.869 0.832-1.869 1.875 0 1.036 0.849 1.875 1.869 1.875h11.262c1.032 0 1.869-0.832 1.869-1.875 0-1.036-0.849-1.875-1.869-1.875h-11.262zm1.881 11.25h-1.875 11.25-1.875v16.875c0 1.036 0.839 1.875 1.875 1.875s1.875-0.839 1.875-1.875v-18.75c0-1.036-0.839-1.875-1.875-1.875h-11.25c-1.036 0-1.875 0.839-1.875 1.875v18.75c0 1.036 0.839 1.875 1.875 1.875s1.875-0.839 1.875-1.875v-16.875z"/>
<path fill="#398FD1" d="m7.5048 58.275c0.0691 0.964 0.8735 1.725 1.8702 1.725 0.017 0 0.0339 0 0.0508-0.001 0.0176 0.001 0.0353 0.001 0.053 0.001h41.033c0.019 0 0.038 0 0.057-0.001 0.018 0.001 0.037 0.001 0.056 0.001 1.036 0 1.875-0.854 1.875-1.86v-0.008c0.003-0.043 0.004-0.087 0.004-0.132s-0.001-0.089-0.004-0.134v-30.102l3.562 3.562c0.732 0.732 1.919 0.732 2.651 0s0.732-1.92 0-2.652l-27.387-27.387c-0.732-0.73244-1.92-0.73244-2.652-0.0002l-27.387 27.387c-0.73244 0.732-0.73244 1.92-0.0002 2.652 0.7322 0.732 1.9194 0.732 2.6516 0l3.5616-3.562v30.002c-0.009 0.077-0.0137 0.155-0.0137 0.234 0 0.093 0.0063 0.185 0.0185 0.275zm3.7452-2.275v-31.64c0-0.109-0.009-0.215-0.027-0.319l18.787-18.767 18.768 18.768c-0.018 0.104-0.028 0.21-0.028 0.318v31.64h-16.574-3.996-16.93z"/>
</g>
</g>
</g>
</g>
</g>
</svg>
